/* XPM */
static char *bitcoin16[] = {
/* columns rows colors chars-per-pixel */
"16 16 46 1 ",
"  c #3A476E",
". c #3A486E",
"X c #3B486E",
"o c #3B486F",
"O c #3C496F",
"+ c #3C4970",
"@ c #3C4A70",
"# c #3D4A70",
"$ c #3E4B70",
"% c #414D73",
"& c #414E73",
"* c #455276",
"= c #495579",
"- c #495679",
"; c #4B577A",
": c #535E80",
"> c #566182",
", c #566183",
"< c #5D6887",
"1 c #5D6888",
"2 c #5E6988",
"3 c #626C8B",
"4 c #687290",
"5 c #697390",
"6 c #6B7592",
"7 c #6D7793",
"8 c #77809B",
"9 c #818AA2",
"0 c #8991A8",
"q c #8D94AB",
"w c #8F97AD",
"e c #9198AE",
"r c #9FA6B8",
"t c #A1A8BA",
"y c #A2A8BB",
"u c #A3A9BB",
"i c #A5ABBC",
"p c #A5ABBD",
"a c #DFE2E8",
"s c #E6E8ED",
"d c #EAEBEF",
"f c #F0F1F4",
"g c #F5F5F7",
"h c #FDFDFD",
"j c white",
"k c None",
/* pixels */
"k##############k",
"################",
"################",
"##+  o####O X###",
"#O;0e5O##O-95$##",
"#X2fjiX##.wja:O#",
"#o1dhtX##Xpjf2X#",
"#@*47,+ooXpjf2X#",
"#@*47>$<<Opjf2X#",
"#o1dhr3ss3ujf2X#",
"#X2fjy6gg6qja:O#",
"#O;0e5%88&=95$##",
"##+  o#  #O X###",
"################",
"################",
"k##############k"
};
