/* XPM */
static char *bitcoin64[] = {
/* columns rows colors chars-per-pixel */
"64 64 87 1 ",
"  c #3A476E",
". c #3A486E",
"X c #3B486E",
"o c #3B486F",
"O c #3B496F",
"+ c #3C496F",
"@ c #3C4970",
"# c #3C4A70",
"$ c #3D4A70",
"% c #3E4A70",
"& c #3E4B70",
"* c #3F4C72",
"= c #404C72",
"- c #414D73",
"; c #424E74",
": c #424F74",
"> c #455176",
", c #475377",
"< c #4C587B",
"1 c #4D597C",
"2 c #556081",
"3 c #586384",
"4 c #586484",
"5 c #596485",
"6 c #5E6988",
"7 c #5E6989",
"8 c #636E8C",
"9 c #66718E",
"0 c #67718F",
"q c #687290",
"w c #6A7491",
"e c #707995",
"r c #707996",
"t c #707A96",
"y c #737C97",
"u c #737C98",
"i c #757E99",
"p c #767F9A",
"a c #78819B",
"s c #828AA3",
"d c #828BA3",
"f c #838BA3",
"g c #838CA4",
"h c #848CA4",
"j c #8890A7",
"k c #8C94AB",
"l c #8D94AB",
"z c #8D95AB",
"x c #9199AE",
"c c #9299AE",
"v c #969DB2",
"b c #9CA2B6",
"n c #B1B6C6",
"m c #B1B7C6",
"M c #B2B7C6",
"N c #B3B8C7",
"B c #B4B9C8",
"V c #B8BDCB",
"C c #B9BDCB",
"Z c #B9BECB",
"A c #BFC3D0",
"S c #CCCFD9",
"D c #CDD1DA",
"F c #D0D4DD",
"G c #D5D8E0",
"H c #D6D8E1",
"J c #D7DAE1",
"K c #D8DBE2",
"L c #DEE0E7",
"P c #E4E6EB",
"I c #E9EBEF",
"U c #EAEBEF",
"Y c #EAEBF0",
"T c #F0F1F4",
"R c #F2F3F5",
"E c #F3F4F7",
"W c #F4F4F7",
"Q c #F5F5F7",
"! c #F5F6F8",
"~ c #F6F6F8",
"^ c #F8F8FA",
"/ c #F9F9FA",
"( c #FAFAFB",
") c #FEFEFE",
"_ c #FEFEFF",
"` c white",
"' c None",
/* pixels */
"''''''$$$$$$$$$$$$$$$$$$$$$$$$$$$$$$$$$$$$$$$$$$$$$$$$$$$$''''''",
"''''$$$$$$$$$$$$$$$$$$$$$$$$$$$$$$$$$$$$$$$$$$$$$$$$$$$$$$$$''''",
"'''$$$$$$$$$$$$$$$$$$$$$$$$$$$$$$$$$$$$$$$$$$$$$$$$$$$$$$$$$$'''",
"''$$$$$$$$$$$$$$$$$$$$$$$$$$$$$$$$$$$$$$$$$$$$$$$$$$$$$$$$$$$$''",
"'$$$$$$$$$$$$$$$$$$$$$$$$$$$$$$$$$$$$$$$$$$$$$$$$$$$$$$$$$$$$$$'",
"'$$$$$$$$$$$$$$$$$$$$$$$$$$$$$$$$$$$$$$$$$$$$$$$$$$$$$$$$$$$$$$'",
"$$$$$$$$$$$$$$$$$$$$$$$$$$$$$$$$$$$$$$$$$$$$$$$$$$$$$$$$$$$$$$$$",
"$$$$$$$$$$$$$$$$$$$$$$$$$$$$$$$$$$$$$$$$$$$$$$$$$$$$$$$$$$$$$$$$",
"$$$$$$$$$$$$$$$$$$$$$$$$$$$$$$$$$$$$$$$$$$$$$$$$$$$$$$$$$$$$$$$$",
"$$$$$$$$$$$$$$$$$$$$$$$$$$$$$$$$$$$$$$$$$$$$$$$$$$$$$$$$$$$$$$$$",
"$$$$$$$$$$$$$$$$$$$$$$$$$$$$$$$$$$$$$$$$$$$$$$$$$$$$$$$$$$$$$$$$",
"$$$$$$$$$$$$$$$$$$$$$$$$$$$$$$$$$$$$$$$$$$$$$$$$$$$$$$$$$$$$$$$$",
"$$$$$$$$$$$$$$$$$$$$$$$$$$$$$$$$$$$$$$$$$$$$$$$$$$$$$$$$$$$$$$$$",
"$$$$$$$$$$$$$$$$$$$$$$$$$$$$$$$$$$$$$$$$$$$$$$$$$$$$$$$$$$$$$$$$",
"$$$$$$$$$$$$$$$$$$$$$$$$$$$$$$$$$$$$$$$$$$$$$$$$$$$$$$$$$$$$$$$$",
"$$$$$$$$$$$$$$$$$$$$$$$$$$$$$$$$$$$$$$$$$$$$$$$$$$$$$$$$$$$$$$$$",
"$$$$$$$$$$$$$$$$$$$$$$$$$$$$$$$$$$$$$$$$$$$$$$$$$$$$$$$$$$$$$$$$",
"$$$$$$$$$$$$%%%%%%%%%$$$$$$$$$$$$$$$$$$$$$$$+ @$.o$$$$$$$$$$$$$$",
"$$$$$$$$$$XwVCCCCCCCZM3o$$$$$$$$$$$$$$$$$$$O2zmBv7$$$$$$$$$$$$$$",
"$$$$$$$$$$ h`````````!0.$$$$$$$$$$$$$$$$$$@aL)```Il=$$$$$$$$$$$$",
"$$$$$$$$$$ h`````````!0.$$$$$$$$$$$$$$$$$XwY``````~fo$$$$$$$$$$$",
"$$$$$$$$$$ h`````````!0.$$$$$$$$$$$$$$$$$:A````````K1+$$$$$$$$$$",
"$$$$$$$$$$ h`````````!0.$$$$$$$$$$$$$$$$o4U````````^r $$$$$$$$$$",
"$$$$$$$$$$ h`````````!0.$$$$$$$$$$$$$$$$.9Q````````)s $$$$$$$$$$",
"$$$$$$$$$$ h`````````!0.$$$$$$$$$$$$$$$$.q!````````_g $$$$$$$$$$",
"$$$$$$$$$$ h`````````!0.$$$$$$$$$$$$$$$$.q!````````_g $$$$$$$$$$",
"$$$$$$$$$$ h`````````!0.$$$$$$$$$$$$$$$$.q!````````_g $$$$$$$$$$",
"$$$$$$$$$$ h`````````!0.$$$$$$$$$$$$$$$$.q!````````_g $$$$$$$$$$",
"$$$$$$$$$$.iGGGGGGGGHD6X$$$$$$$$$$$$$$$$.q!````````_g $$$$$$$$$$",
"$$$$$$$$$$$-,,,,,,,,,,*$$$$$$$$$$$$$$$$$.q!````````_g $$$$$$$$$$",
"$$$$$$$$$$$$@@@@@@@@@@$$$$$$$$$$$$$$$$$$.q!````````_g $$$$$$$$$$",
"$$$$$$$$$$$$$$$$$$$$$$$$$$$$$$$$$$$$$$$$.q!````````_g $$$$$$$$$$",
"$$$$$$$$$$$$$$$$$$$$$$$$$$$$$$$$$$$$$$$$.q!````````_g $$$$$$$$$$",
"$$$$$$$$$$$$@@@@@@@@@@$$$$$$$$$$$$$$$$$$.q!````````_g $$$$$$$$$$",
"$$$$$$$$$$$-,,,,,,,,,,*$$$$$$X$>>$X$$$$$.q!````````_g $$$$$$$$$$",
"$$$$$$$$$$.iGGGGGGGGHD6X$$$+*tmFFmt*+$$$.q!````````_g $$$$$$$$$$",
"$$$$$$$$$$ h`````````!0.$$#:bW````Eb:#$$.q!````````_g $$$$$$$$$$",
"$$$$$$$$$$ h`````````!0.$$oj/``````/jo$$.q!````````_g $$$$$$$$$$",
"$$$$$$$$$$ h`````````!0.$+<J````````J<+$.q!````````_g $$$$$$$$$$",
"$$$$$$$$$$ h`````````!0.$.qQ````````Qq.$.q!````````_g $$$$$$$$$$",
"$$$$$$$$$$ h`````````!0.$ u(````````(y $.9Q````````)s $$$$$$$$$$",
"$$$$$$$$$$ h`````````!0.$X8R````````R8X$o4U````````^e $$$$$$$$$$",
"$$$$$$$$$$ h`````````!0.$@,S````````S,@$$;A````````K1+$$$$$$$$$$",
"$$$$$$$$$$ h`````````!0.$$XpT``````TpX$$$XwU``````~do$$$$$$$$$$$",
"$$$$$$$$$$ h`````````!0.$$$&sP````Ps&$$$$$@aL)```Ik=$$$$$$$$$$$$",
"$$$$$$$$$$XwVCCCCCCCZM3o$$$$+5cNNx5+$$$$$$$o2lnBv6$$$$$$$$$$$$$$",
"$$$$$$$$$$$$%%%%%%%%%$$$$$$$$o $$ o$$$$$$$$$+ @$.o$$$$$$$$$$$$$$",
"$$$$$$$$$$$$$$$$$$$$$$$$$$$$$$$$$$$$$$$$$$$$$$$$$$$$$$$$$$$$$$$$",
"$$$$$$$$$$$$$$$$$$$$$$$$$$$$$$$$$$$$$$$$$$$$$$$$$$$$$$$$$$$$$$$$",
"$$$$$$$$$$$$$$$$$$$$$$$$$$$$$$$$$$$$$$$$$$$$$$$$$$$$$$$$$$$$$$$$",
"$$$$$$$$$$$$$$$$$$$$$$$$$$$$$$$$$$$$$$$$$$$$$$$$$$$$$$$$$$$$$$$$",
"$$$$$$$$$$$$$$$$$$$$$$$$$$$$$$$$$$$$$$$$$$$$$$$$$$$$$$$$$$$$$$$$",
"$$$$$$$$$$$$$$$$$$$$$$$$$$$$$$$$$$$$$$$$$$$$$$$$$$$$$$$$$$$$$$$$",
"$$$$$$$$$$$$$$$$$$$$$$$$$$$$$$$$$$$$$$$$$$$$$$$$$$$$$$$$$$$$$$$$",
"$$$$$$$$$$$$$$$$$$$$$$$$$$$$$$$$$$$$$$$$$$$$$$$$$$$$$$$$$$$$$$$$",
"$$$$$$$$$$$$$$$$$$$$$$$$$$$$$$$$$$$$$$$$$$$$$$$$$$$$$$$$$$$$$$$$",
"$$$$$$$$$$$$$$$$$$$$$$$$$$$$$$$$$$$$$$$$$$$$$$$$$$$$$$$$$$$$$$$$",
"$$$$$$$$$$$$$$$$$$$$$$$$$$$$$$$$$$$$$$$$$$$$$$$$$$$$$$$$$$$$$$$$",
"'$$$$$$$$$$$$$$$$$$$$$$$$$$$$$$$$$$$$$$$$$$$$$$$$$$$$$$$$$$$$$$'",
"'$$$$$$$$$$$$$$$$$$$$$$$$$$$$$$$$$$$$$$$$$$$$$$$$$$$$$$$$$$$$$$'",
"''$$$$$$$$$$$$$$$$$$$$$$$$$$$$$$$$$$$$$$$$$$$$$$$$$$$$$$$$$$$$''",
"'''$$$$$$$$$$$$$$$$$$$$$$$$$$$$$$$$$$$$$$$$$$$$$$$$$$$$$$$$$$'''",
"''''$$$$$$$$$$$$$$$$$$$$$$$$$$$$$$$$$$$$$$$$$$$$$$$$$$$$$$$$''''",
"''''''$$$$$$$$$$$$$$$$$$$$$$$$$$$$$$$$$$$$$$$$$$$$$$$$$$$$''''''"
};
