/* XPM */
static char *bitcoin32[] = {
/* columns rows colors chars-per-pixel */
"32 32 61 1 ",
"  c #39466D",
". c #39476D",
"X c #3A476E",
"o c #3B486E",
"O c #3B486F",
"+ c #3B496F",
"@ c #3C496F",
"# c #3C4970",
"$ c #3C4A70",
"% c #3D4A70",
"& c #3E4B71",
"* c #3F4C71",
"= c #404D72",
"- c #424F74",
"; c #435075",
": c #445175",
"> c #455276",
", c #465277",
"< c #485578",
"1 c #4B577A",
"2 c #505C7E",
"3 c #535F80",
"4 c #545F81",
"5 c #546081",
"6 c #566182",
"7 c #596484",
"8 c #5A6585",
"9 c #5B6686",
"0 c #5D6888",
"q c #5F6A89",
"w c #646E8D",
"e c #697391",
"r c #77809B",
"t c #838BA3",
"y c #858DA5",
"u c #8A92A9",
"i c #8D95AB",
"p c #9198AE",
"a c #9199AE",
"s c #9EA4B7",
"d c #9EA4B8",
"f c #AAB0C1",
"g c #ABB0C1",
"h c #ACB1C2",
"j c #B1B6C6",
"k c #BCC0CD",
"l c #C6CAD5",
"z c #C8CCD7",
"x c #CCCFD9",
"c c #D0D3DC",
"v c #D3D6DE",
"b c #D3D6DF",
"n c #D5D7E0",
"m c #EBECF0",
"M c #EFF0F3",
"N c #F3F3F6",
"B c #F4F5F7",
"V c #F6F7F8",
"C c #F6F7F9",
"Z c white",
"A c None",
/* pixels */
"AAA%%%%%%%%%%%%%%%%%%%%%%%%%%AAA",
"A%%%%%%%%%%%%%%%%%%%%%%%%%%%%%%A",
"A%%%%%%%%%%%%%%%%%%%%%%%%%%%%%%A",
"%%%%%%%%%%%%%%%%%%%%%%%%%%%%%%%%",
"%%%%%%%%%%%%%%%%%%%%%%%%%%%%%%%%",
"%%%%%%%%%%%%%%%%%%%%%%%%%%%%%%%%",
"%%%%%%%%%%%%%%%%%%%%%%%%%%%%%%%%",
"%%%%%%$###%%%%%%%%%%%%%%%%%%%%%%",
"%%%%%*>,,,>&%%%%%%%%%@%:&+%%%%%%",
"%%%%oqxbvbl6+%%%%%%%@5gcj9@%%%%%",
"%%%%XeCZZZM0o%%%%%%%;kZZZz<@%%%%",
"%%%%XeCZZZM0o%%%%%%O7mZZZNwo%%%%",
"%%%%XeCZZZM0o%%%%%%o0MZZZVeX%%%%",
"%%%%XeCZZZM0o%%%%%%o0MZZZVeX%%%%",
"%%%%@2ippau1@%%%%%%o0MZZZVeX%%%%",
"%%%%%@XXXXX#%%%%%%%o0MZZZVeX%%%%",
"%%%%%@XXXXX#%%@XX@%o0MZZZVeX%%%%",
"%%%%@2ippau1@@3yy3@o0MZZZVeX%%%%",
"%%%%XeCZZZM0.8nZZn8.0MZZZVeX%%%%",
"%%%%XeCZZZM0 dZZZZs 0MZZZVeX%%%%",
"%%%%XeCZZZM0XhZZZZhX7mZZZNwo%%%%",
"%%%%XeCZZZM0 rBZZBrX;kZZZz<@%%%%",
"%%%%oqxbvbl6O=tzzt=%@4fcj9@%%%%%",
"%%%%%*>,,,>&%%O--O%%%@%:&+%%%%%%",
"%%%%%%$###%%%%%%%%%%%%%%%%%%%%%%",
"%%%%%%%%%%%%%%%%%%%%%%%%%%%%%%%%",
"%%%%%%%%%%%%%%%%%%%%%%%%%%%%%%%%",
"%%%%%%%%%%%%%%%%%%%%%%%%%%%%%%%%",
"%%%%%%%%%%%%%%%%%%%%%%%%%%%%%%%%",
"A%%%%%%%%%%%%%%%%%%%%%%%%%%%%%%A",
"A%%%%%%%%%%%%%%%%%%%%%%%%%%%%%%A",
"AAA%%%%%%%%%%%%%%%%%%%%%%%%%%AAA"
};
